<svg width="488" height="107" viewBox="0 0 488 107" fill="none" xmlns="http://www.w3.org/2000/svg">
<path d="M0.000383377 104.832V1.15202H24.4484C32.8964 1.15202 39.4671 2.30402 44.1604 4.60802C48.9391 6.91203 52.3097 10.4534 54.2724 15.232C56.3204 20.0107 57.3444 26.0694 57.3444 33.408V71.296C57.3444 78.8054 56.3204 85.0774 54.2724 90.112C52.3097 95.0614 48.9817 98.7734 44.2884 101.248C39.6804 103.637 33.3231 104.832 25.2164 104.832H0.000383377ZM18.9444 91.648H24.7044C29.0564 91.648 32.1711 90.88 34.0484 89.344C35.9257 87.808 37.0777 85.5894 37.5044 82.688C37.9311 79.7014 38.1444 76.0747 38.1444 71.808V32.128C38.1444 27.9467 37.8457 24.576 37.2484 22.016C36.6511 19.456 35.4137 17.5787 33.5364 16.384C31.6591 15.1894 28.6297 14.592 24.4484 14.592H18.9444V91.648ZM71.7624 104.832V1.15202H90.4504V104.832H71.7624ZM106.5 104.832V1.15202H131.332C138.33 1.15202 144.218 2.00536 148.996 3.71203C153.86 5.33336 157.53 8.14936 160.004 12.16C162.564 16.1707 163.844 21.632 163.844 28.544C163.844 32.7254 163.46 36.48 162.692 39.808C161.924 43.136 160.602 45.9947 158.724 48.384C156.932 50.688 154.415 52.48 151.172 53.76L165.636 104.832H146.692L134.148 57.344H125.444V104.832H106.5ZM125.444 45.44H131.332C135.002 45.44 137.903 44.928 140.036 43.904C142.255 42.7947 143.834 41.088 144.772 38.784C145.711 36.3947 146.18 33.3654 146.18 29.696C146.18 24.4907 145.199 20.608 143.236 18.048C141.359 15.4027 137.732 14.08 132.356 14.08H125.444V45.44ZM178.25 104.832V1.15202H221.77V14.464H197.194V44.288H216.522V57.472H197.194V91.776H222.026V104.832H178.25ZM260.904 106.24C253.31 106.24 247.336 104.747 242.984 101.76C238.718 98.7734 235.731 94.72 234.024 89.6C232.318 84.3947 231.464 78.4214 231.464 71.68V34.688C231.464 27.6054 232.318 21.4614 234.024 16.256C235.731 11.0507 238.718 7.04003 242.984 4.22403C247.336 1.40803 253.31 2.28882e-05 260.904 2.28882e-05C268.072 2.28882e-05 273.662 1.23736 277.672 3.71203C281.768 6.10136 284.67 9.55736 286.376 14.08C288.083 18.6027 288.936 23.8507 288.936 29.824V38.528H270.76V29.568C270.76 26.6667 270.59 24.0214 270.248 21.632C269.992 19.2427 269.182 17.3654 267.816 16C266.536 14.5494 264.275 13.824 261.032 13.824C257.79 13.824 255.4 14.592 253.864 16.128C252.414 17.5787 251.475 19.584 251.048 22.144C250.622 24.6187 250.408 27.4347 250.408 30.592V75.648C250.408 79.4027 250.707 82.5174 251.304 84.992C251.902 87.3814 252.968 89.216 254.504 90.496C256.126 91.6907 258.302 92.288 261.032 92.288C264.19 92.288 266.408 91.5627 267.688 90.112C269.054 88.576 269.907 86.5707 270.248 84.096C270.59 81.6214 270.76 78.848 270.76 75.776V66.432H288.936V74.752C288.936 80.896 288.126 86.3574 286.504 91.136C284.883 95.8294 282.024 99.5414 277.928 102.272C273.918 104.917 268.243 106.24 260.904 106.24ZM312.493 104.832V15.104H295.981V1.15202H347.693V15.104H331.437V104.832H312.493ZM384.535 106.24C377.197 106.24 371.351 104.875 366.999 102.144C362.647 99.4134 359.533 95.488 357.655 90.368C355.778 85.248 354.839 79.1894 354.839 72.192V33.408C354.839 26.4107 355.778 20.4374 357.655 15.488C359.533 10.4534 362.647 6.61336 366.999 3.96803C371.351 1.32269 377.197 2.28882e-05 384.535 2.28882e-05C392.045 2.28882e-05 397.933 1.32269 402.199 3.96803C406.551 6.61336 409.666 10.4534 411.543 15.488C413.506 20.4374 414.487 26.4107 414.487 33.408V72.32C414.487 79.232 413.506 85.248 411.543 90.368C409.666 95.4027 406.551 99.328 402.199 102.144C397.933 104.875 392.045 106.24 384.535 106.24ZM384.535 92.288C387.693 92.288 389.997 91.6054 391.447 90.24C392.983 88.8747 394.007 86.9974 394.519 84.608C395.031 82.2187 395.287 79.616 395.287 76.8V29.056C395.287 26.1547 395.031 23.552 394.519 21.248C394.007 18.944 392.983 17.152 391.447 15.872C389.997 14.5067 387.693 13.824 384.535 13.824C381.549 13.824 379.287 14.5067 377.751 15.872C376.215 17.152 375.191 18.944 374.679 21.248C374.167 23.552 373.911 26.1547 373.911 29.056V76.8C373.911 79.616 374.125 82.2187 374.551 84.608C375.063 86.9974 376.087 88.8747 377.623 90.24C379.159 91.6054 381.463 92.288 384.535 92.288ZM428.5 104.832V1.15202H453.332C460.33 1.15202 466.218 2.00536 470.996 3.71203C475.86 5.33336 479.53 8.14936 482.004 12.16C484.564 16.1707 485.844 21.632 485.844 28.544C485.844 32.7254 485.46 36.48 484.692 39.808C483.924 43.136 482.602 45.9947 480.724 48.384C478.932 50.688 476.415 52.48 473.172 53.76L487.636 104.832H468.692L456.148 57.344H447.444V104.832H428.5ZM447.444 45.44H453.332C457.002 45.44 459.903 44.928 462.036 43.904C464.255 42.7947 465.834 41.088 466.772 38.784C467.711 36.3947 468.18 33.3654 468.18 29.696C468.18 24.4907 467.199 20.608 465.236 18.048C463.359 15.4027 459.732 14.08 454.356 14.08H447.444V45.44Z" fill="#EB3DF7"/>
</svg>
