<svg preserveAspectRatio="none" width="100%" height="100%" overflow="visible" style="display: block;" viewBox="0 0 77 77" fill="none" xmlns="http://www.w3.org/2000/svg">
<g id="heart-solid 1">
<path id="Vector" fill-rule="evenodd" clip-rule="evenodd" d="M38.4997 12.6481C42.272 9.17173 47.1846 7.21875 52.3128 7.21875C57.8504 7.21875 63.1368 9.49593 67.0073 13.5095C70.8503 17.4912 72.9896 22.8587 72.9896 28.433C72.9896 34.0074 70.8499 39.3752 67.0073 43.3565C64.4522 46.0053 61.9009 48.7141 59.3365 51.437C54.1278 56.9678 48.8632 62.5577 43.3946 67.8242L43.3818 67.8364C40.5617 70.5124 36.0954 70.4152 33.3955 67.6169L9.99072 43.3561C2.01698 35.0908 2.01698 21.7752 9.99072 13.5098C17.7936 5.42157 30.3585 5.13436 38.4997 12.6481Z" fill="var(--fill-0, #FFE642)"/>
</g>
</svg>
