<svg preserveAspectRatio="none" width="100%" height="100%" overflow="visible" style="display: block;" viewBox="0 0 77.5077 77.5077" fill="none" xmlns="http://www.w3.org/2000/svg">
<g id="heart-solid 1">
<path id="Vector" fill-rule="evenodd" clip-rule="evenodd" d="M38.7535 12.7315C42.5508 9.2322 47.4957 7.26635 52.6578 7.26635C58.2318 7.26635 63.5531 9.55854 67.4491 13.5985C71.3174 17.6066 73.4708 23.0094 73.4708 28.6204C73.4708 34.2316 71.3171 39.6348 67.4491 43.6423C64.8772 46.3086 62.3091 49.0352 59.7277 51.7761C54.4847 57.3434 49.1854 62.9702 43.6807 68.2714L43.6678 68.2836C40.8291 70.9773 36.3333 70.8795 33.6157 68.0627L10.0566 43.642C2.03028 35.3222 2.03028 21.9188 10.0566 13.5989C17.9109 5.45732 30.5587 5.16821 38.7535 12.7315Z" fill="var(--fill-0, #DD2D2A)"/>
</g>
</svg>
