<svg width="373" height="206" viewBox="9.5 51.2 373.0 205.6" fill="none" xmlns="http://www.w3.org/2000/svg">
<path d="M11.48 56.00 L58.52 56.00 Q81.48 56.00 92.96 68.32 Q104.44 80.64 104.44 104.44 L104.44 203.56 Q104.44 227.36 92.96 239.68 Q81.48 252.00 58.52 252.00 L11.48 252.00 Z M57.96 224.00 Q65.52 224.00 69.58 219.52 Q73.64 215.04 73.64 204.96 L73.64 103.04 Q73.64 92.96 69.58 88.48 Q65.52 84.00 57.96 84.00 L42.28 84.00 L42.28 224.00 Z M106.12 205.52 L106.12 102.48 Q106.12 78.96 118.16 66.08 Q130.20 53.20 152.88 53.20 Q175.56 53.20 187.60 66.08 Q199.64 78.96 199.64 102.48 L199.64 205.52 Q199.64 229.04 187.60 241.92 Q175.56 254.80 152.88 254.80 Q130.20 254.80 118.16 241.92 Q106.12 229.04 106.12 205.52 Z M168.84 207.48 L168.84 100.52 Q168.84 81.20 152.88 81.20 Q136.92 81.20 136.92 100.52 L136.92 207.48 Q136.92 226.80 152.88 226.80 Q168.84 226.80 168.84 207.48 Z M201.60 206.64 L201.60 101.36 Q201.60 78.40 213.22 65.80 Q224.84 53.20 246.96 53.20 Q269.08 53.20 280.70 65.80 Q292.32 78.40 292.32 101.36 L292.32 122.08 L263.20 122.08 L263.20 99.40 Q263.20 81.20 247.80 81.20 Q232.40 81.20 232.40 99.40 L232.40 208.88 Q232.40 226.80 247.80 226.80 Q263.20 226.80 263.20 208.88 L263.20 178.92 L292.32 178.92 L292.32 206.64 Q292.32 229.60 280.70 242.20 Q269.08 254.80 246.96 254.80 Q224.84 254.80 213.22 242.20 Q201.60 229.60 201.60 206.64 Z M288.68 205.52 L288.68 194.32 L317.80 194.32 L317.80 207.76 Q317.80 226.80 333.76 226.80 Q341.60 226.80 345.66 222.18 Q349.72 217.56 349.72 207.20 Q349.72 194.88 344.12 185.50 Q338.52 176.12 323.40 162.96 Q304.36 146.16 296.80 132.58 Q289.24 119.00 289.24 101.92 Q289.24 78.68 301.00 65.94 Q312.76 53.20 335.16 53.20 Q357.28 53.20 368.62 65.94 Q379.96 78.68 379.96 102.48 L379.96 110.60 L350.84 110.60 L350.84 100.52 Q350.84 90.44 346.92 85.82 Q343.00 81.20 335.44 81.20 Q320.04 81.20 320.04 99.96 Q320.04 110.60 325.78 119.84 Q331.52 129.08 346.64 142.24 Q365.96 159.04 373.24 172.76 Q380.52 186.48 380.52 204.96 Q380.52 229.04 368.62 241.92 Q356.72 254.80 334.04 254.80 Q311.64 254.80 300.16 242.06 Q288.68 229.32 288.68 205.52 Z" fill="#2B2929"/>
</svg>